<mxfile host="app.diagrams.net" agent="Mozilla/5.0 (Windows NT 10.0; Win64; x64) AppleWebKit/537.36 (KHTML, like Gecko) Chrome/139.0.0.0 Safari/537.36" version="28.1.0">
  <diagram name="Page-1" id="ESkugIed0OhPZJeooRwT">
    <mxGraphModel dx="1301" dy="702" grid="1" gridSize="10" guides="1" tooltips="1" connect="1" arrows="1" fold="1" page="1" pageScale="1" pageWidth="827" pageHeight="1169" math="0" shadow="0">
      <root>
        <mxCell id="0" />
        <mxCell id="1" parent="0" />
        <mxCell id="lF7uxzH7znnain-QYsXM-2" style="edgeStyle=orthogonalEdgeStyle;rounded=0;orthogonalLoop=1;jettySize=auto;html=1;exitX=0.5;exitY=1;exitDx=0;exitDy=0;" parent="1" source="lF7uxzH7znnain-QYsXM-1" edge="1">
          <mxGeometry relative="1" as="geometry">
            <mxPoint x="370" y="140" as="targetPoint" />
          </mxGeometry>
        </mxCell>
        <mxCell id="lF7uxzH7znnain-QYsXM-1" value="Start" style="ellipse;whiteSpace=wrap;html=1;fillColor=#f8cecc;strokeColor=#b85450;" parent="1" vertex="1">
          <mxGeometry x="290" y="30" width="160" height="60" as="geometry" />
        </mxCell>
        <mxCell id="lF7uxzH7znnain-QYsXM-4" style="edgeStyle=orthogonalEdgeStyle;rounded=0;orthogonalLoop=1;jettySize=auto;html=1;exitX=0.5;exitY=1;exitDx=0;exitDy=0;" parent="1" source="lF7uxzH7znnain-QYsXM-3" edge="1">
          <mxGeometry relative="1" as="geometry">
            <mxPoint x="370" y="250" as="targetPoint" />
          </mxGeometry>
        </mxCell>
        <mxCell id="lF7uxzH7znnain-QYsXM-3" value="input&amp;nbsp;&lt;div&gt;Login murid/guru/&amp;nbsp;&lt;div&gt;admin&lt;/div&gt;&lt;/div&gt;" style="shape=parallelogram;perimeter=parallelogramPerimeter;whiteSpace=wrap;html=1;fixedSize=1;fillColor=#dae8fc;strokeColor=#6c8ebf;" parent="1" vertex="1">
          <mxGeometry x="280" y="140" width="163" height="60" as="geometry" />
        </mxCell>
        <mxCell id="4jwVYg3BWEoAE2d7wsvT-8" style="edgeStyle=orthogonalEdgeStyle;rounded=0;orthogonalLoop=1;jettySize=auto;html=1;exitX=0.5;exitY=1;exitDx=0;exitDy=0;" parent="1" source="lF7uxzH7znnain-QYsXM-7" edge="1">
          <mxGeometry relative="1" as="geometry">
            <mxPoint x="369.8571428571429" y="380" as="targetPoint" />
          </mxGeometry>
        </mxCell>
        <mxCell id="4jwVYg3BWEoAE2d7wsvT-17" style="edgeStyle=orthogonalEdgeStyle;rounded=0;orthogonalLoop=1;jettySize=auto;html=1;exitX=1;exitY=0.5;exitDx=0;exitDy=0;entryX=0;entryY=0.5;entryDx=0;entryDy=0;" parent="1" source="lF7uxzH7znnain-QYsXM-7" target="4jwVYg3BWEoAE2d7wsvT-12" edge="1">
          <mxGeometry relative="1" as="geometry" />
        </mxCell>
        <mxCell id="lF7uxzH7znnain-QYsXM-7" value="login&amp;nbsp;&lt;div&gt;valid?&lt;/div&gt;" style="rhombus;whiteSpace=wrap;html=1;fillColor=#fff2cc;strokeColor=#d6b656;" parent="1" vertex="1">
          <mxGeometry x="330" y="250" width="80" height="80" as="geometry" />
        </mxCell>
        <mxCell id="4jwVYg3BWEoAE2d7wsvT-10" value="Ya" style="text;html=1;align=center;verticalAlign=middle;whiteSpace=wrap;rounded=0;" parent="1" vertex="1">
          <mxGeometry x="310" y="330" width="70" height="30" as="geometry" />
        </mxCell>
        <mxCell id="4jwVYg3BWEoAE2d7wsvT-26" style="edgeStyle=orthogonalEdgeStyle;rounded=0;orthogonalLoop=1;jettySize=auto;html=1;exitX=0.5;exitY=1;exitDx=0;exitDy=0;" parent="1" source="4jwVYg3BWEoAE2d7wsvT-11" edge="1">
          <mxGeometry relative="1" as="geometry">
            <mxPoint x="375.44444444444434" y="490" as="targetPoint" />
          </mxGeometry>
        </mxCell>
        <mxCell id="4jwVYg3BWEoAE2d7wsvT-27" style="edgeStyle=orthogonalEdgeStyle;rounded=0;orthogonalLoop=1;jettySize=auto;html=1;exitX=0;exitY=0.5;exitDx=0;exitDy=0;" parent="1" source="4jwVYg3BWEoAE2d7wsvT-11" edge="1">
          <mxGeometry relative="1" as="geometry">
            <mxPoint x="180" y="400" as="targetPoint" />
          </mxGeometry>
        </mxCell>
        <mxCell id="4jwVYg3BWEoAE2d7wsvT-28" style="edgeStyle=orthogonalEdgeStyle;rounded=0;orthogonalLoop=1;jettySize=auto;html=1;exitX=1;exitY=0.5;exitDx=0;exitDy=0;" parent="1" source="4jwVYg3BWEoAE2d7wsvT-11" edge="1">
          <mxGeometry relative="1" as="geometry">
            <mxPoint x="580" y="400" as="targetPoint" />
          </mxGeometry>
        </mxCell>
        <mxCell id="4jwVYg3BWEoAE2d7wsvT-11" value="sistem mengecek role&amp;nbsp;&lt;div&gt;akun yang sudah login.&lt;/div&gt;" style="rounded=1;whiteSpace=wrap;html=1;fillColor=#dae8fc;strokeColor=#6c8ebf;" parent="1" vertex="1">
          <mxGeometry x="310" y="380" width="130" height="40" as="geometry" />
        </mxCell>
        <mxCell id="4jwVYg3BWEoAE2d7wsvT-12" value="Email/password&lt;div&gt;salah&lt;/div&gt;" style="rounded=1;whiteSpace=wrap;html=1;fillColor=#dae8fc;strokeColor=#6c8ebf;" parent="1" vertex="1">
          <mxGeometry x="490" y="270" width="110" height="40" as="geometry" />
        </mxCell>
        <mxCell id="4jwVYg3BWEoAE2d7wsvT-18" value="tidak" style="text;html=1;align=center;verticalAlign=middle;whiteSpace=wrap;rounded=0;" parent="1" vertex="1">
          <mxGeometry x="414" y="250" width="66" height="40" as="geometry" />
        </mxCell>
        <mxCell id="4jwVYg3BWEoAE2d7wsvT-23" value="" style="endArrow=none;html=1;rounded=0;" parent="1" edge="1">
          <mxGeometry width="50" height="50" relative="1" as="geometry">
            <mxPoint x="550" y="270" as="sourcePoint" />
            <mxPoint x="550" y="160" as="targetPoint" />
          </mxGeometry>
        </mxCell>
        <mxCell id="4jwVYg3BWEoAE2d7wsvT-24" value="" style="endArrow=classic;html=1;rounded=0;" parent="1" edge="1">
          <mxGeometry width="50" height="50" relative="1" as="geometry">
            <mxPoint x="550" y="160" as="sourcePoint" />
            <mxPoint x="438" y="156" as="targetPoint" />
          </mxGeometry>
        </mxCell>
        <mxCell id="4CQaGWNJay9pVI9Aiefd-10" style="edgeStyle=orthogonalEdgeStyle;rounded=0;orthogonalLoop=1;jettySize=auto;html=1;exitX=0.5;exitY=1;exitDx=0;exitDy=0;" parent="1" source="4jwVYg3BWEoAE2d7wsvT-29" edge="1">
          <mxGeometry relative="1" as="geometry">
            <mxPoint x="381.2631578947369" y="580" as="targetPoint" />
          </mxGeometry>
        </mxCell>
        <mxCell id="4jwVYg3BWEoAE2d7wsvT-29" value="dashboard guru&amp;nbsp;" style="rounded=1;whiteSpace=wrap;html=1;fillColor=#dae8fc;strokeColor=#6c8ebf;" parent="1" vertex="1">
          <mxGeometry x="323" y="490" width="117" height="40" as="geometry" />
        </mxCell>
        <mxCell id="4CQaGWNJay9pVI9Aiefd-4" style="edgeStyle=orthogonalEdgeStyle;rounded=0;orthogonalLoop=1;jettySize=auto;html=1;exitX=0.5;exitY=1;exitDx=0;exitDy=0;" parent="1" source="4jwVYg3BWEoAE2d7wsvT-30" edge="1">
          <mxGeometry relative="1" as="geometry">
            <mxPoint x="118.71428571428567" y="500" as="targetPoint" />
          </mxGeometry>
        </mxCell>
        <mxCell id="4jwVYg3BWEoAE2d7wsvT-30" value="dashboard admin" style="rounded=1;whiteSpace=wrap;html=1;fillColor=#dae8fc;strokeColor=#6c8ebf;" parent="1" vertex="1">
          <mxGeometry x="60" y="380" width="117" height="40" as="geometry" />
        </mxCell>
        <mxCell id="4CQaGWNJay9pVI9Aiefd-1" style="edgeStyle=orthogonalEdgeStyle;rounded=0;orthogonalLoop=1;jettySize=auto;html=1;exitX=0.5;exitY=1;exitDx=0;exitDy=0;" parent="1" source="4jwVYg3BWEoAE2d7wsvT-31" edge="1">
          <mxGeometry relative="1" as="geometry">
            <mxPoint x="638.7142857142856" y="500" as="targetPoint" />
          </mxGeometry>
        </mxCell>
        <mxCell id="4jwVYg3BWEoAE2d7wsvT-31" value="dashboard murid" style="rounded=1;whiteSpace=wrap;html=1;fillColor=#dae8fc;strokeColor=#6c8ebf;" parent="1" vertex="1">
          <mxGeometry x="580" y="380" width="117" height="40" as="geometry" />
        </mxCell>
        <mxCell id="4CQaGWNJay9pVI9Aiefd-6" style="edgeStyle=orthogonalEdgeStyle;rounded=0;orthogonalLoop=1;jettySize=auto;html=1;exitX=0.5;exitY=1;exitDx=0;exitDy=0;" parent="1" source="4CQaGWNJay9pVI9Aiefd-5" target="4CQaGWNJay9pVI9Aiefd-7" edge="1">
          <mxGeometry relative="1" as="geometry">
            <mxPoint x="638.258064516129" y="580" as="targetPoint" />
          </mxGeometry>
        </mxCell>
        <mxCell id="4CQaGWNJay9pVI9Aiefd-5" value="memilih mata pelajaran" style="rounded=1;whiteSpace=wrap;html=1;fillColor=#dae8fc;strokeColor=#6c8ebf;" parent="1" vertex="1">
          <mxGeometry x="577" y="500" width="123" height="30" as="geometry" />
        </mxCell>
        <mxCell id="XHC_1rtgCeSJJfJ9n7Ta-4" style="edgeStyle=orthogonalEdgeStyle;rounded=0;orthogonalLoop=1;jettySize=auto;html=1;exitX=0.5;exitY=1;exitDx=0;exitDy=0;entryX=1;entryY=0.25;entryDx=0;entryDy=0;" edge="1" parent="1" source="4CQaGWNJay9pVI9Aiefd-7" target="XHC_1rtgCeSJJfJ9n7Ta-1">
          <mxGeometry relative="1" as="geometry" />
        </mxCell>
        <mxCell id="4CQaGWNJay9pVI9Aiefd-7" value="mengecek nilai&amp;nbsp;" style="rounded=1;whiteSpace=wrap;html=1;fillColor=#dae8fc;strokeColor=#6c8ebf;" parent="1" vertex="1">
          <mxGeometry x="578.26" y="610" width="121.74" height="30" as="geometry" />
        </mxCell>
        <mxCell id="4CQaGWNJay9pVI9Aiefd-21" style="edgeStyle=orthogonalEdgeStyle;rounded=0;orthogonalLoop=1;jettySize=auto;html=1;exitX=0.5;exitY=1;exitDx=0;exitDy=0;" parent="1" source="4CQaGWNJay9pVI9Aiefd-9" edge="1">
          <mxGeometry relative="1" as="geometry">
            <mxPoint x="121.30769230769226" y="610" as="targetPoint" />
          </mxGeometry>
        </mxCell>
        <mxCell id="4CQaGWNJay9pVI9Aiefd-9" value="input&amp;nbsp;&lt;div&gt;tambah,edit,dan menghapus akun&lt;/div&gt;&lt;div&gt;&amp;nbsp;murid dan guru&lt;/div&gt;" style="shape=parallelogram;perimeter=parallelogramPerimeter;whiteSpace=wrap;html=1;fixedSize=1;fillColor=#dae8fc;strokeColor=#6c8ebf;" parent="1" vertex="1">
          <mxGeometry x="52" y="500" width="138" height="70" as="geometry" />
        </mxCell>
        <mxCell id="4CQaGWNJay9pVI9Aiefd-15" style="edgeStyle=orthogonalEdgeStyle;rounded=0;orthogonalLoop=1;jettySize=auto;html=1;exitX=0.5;exitY=1;exitDx=0;exitDy=0;entryX=0.5;entryY=0;entryDx=0;entryDy=0;" parent="1" source="4CQaGWNJay9pVI9Aiefd-11" target="4CQaGWNJay9pVI9Aiefd-12" edge="1">
          <mxGeometry relative="1" as="geometry" />
        </mxCell>
        <mxCell id="4CQaGWNJay9pVI9Aiefd-11" value="input&lt;div&gt;nilai siswa&lt;/div&gt;" style="shape=parallelogram;perimeter=parallelogramPerimeter;whiteSpace=wrap;html=1;fixedSize=1;fillColor=#dae8fc;strokeColor=#6c8ebf;" parent="1" vertex="1">
          <mxGeometry x="310" y="580" width="135" height="45" as="geometry" />
        </mxCell>
        <mxCell id="4CQaGWNJay9pVI9Aiefd-16" style="edgeStyle=orthogonalEdgeStyle;rounded=0;orthogonalLoop=1;jettySize=auto;html=1;exitX=0.5;exitY=1;exitDx=0;exitDy=0;" parent="1" source="4CQaGWNJay9pVI9Aiefd-12" edge="1">
          <mxGeometry relative="1" as="geometry">
            <mxPoint x="380.53846153846143" y="790" as="targetPoint" />
          </mxGeometry>
        </mxCell>
        <mxCell id="4CQaGWNJay9pVI9Aiefd-17" style="edgeStyle=orthogonalEdgeStyle;rounded=0;orthogonalLoop=1;jettySize=auto;html=1;exitX=0;exitY=0.5;exitDx=0;exitDy=0;" parent="1" source="4CQaGWNJay9pVI9Aiefd-12" edge="1">
          <mxGeometry relative="1" as="geometry">
            <mxPoint x="320" y="640" as="targetPoint" />
          </mxGeometry>
        </mxCell>
        <mxCell id="4CQaGWNJay9pVI9Aiefd-12" value="Data nilai berhasil di simpan" style="rhombus;whiteSpace=wrap;html=1;fillColor=#fff2cc;strokeColor=#d6b656;" parent="1" vertex="1">
          <mxGeometry x="341.5" y="650" width="78.5" height="90" as="geometry" />
        </mxCell>
        <mxCell id="4CQaGWNJay9pVI9Aiefd-18" value="Ya" style="text;html=1;align=center;verticalAlign=middle;whiteSpace=wrap;rounded=0;" parent="1" vertex="1">
          <mxGeometry x="380" y="750" width="60" height="30" as="geometry" />
        </mxCell>
        <mxCell id="4CQaGWNJay9pVI9Aiefd-19" value="tidak" style="text;html=1;align=center;verticalAlign=middle;whiteSpace=wrap;rounded=0;" parent="1" vertex="1">
          <mxGeometry x="310" y="650" width="60" height="30" as="geometry" />
        </mxCell>
        <mxCell id="4CQaGWNJay9pVI9Aiefd-22" style="edgeStyle=orthogonalEdgeStyle;rounded=0;orthogonalLoop=1;jettySize=auto;html=1;exitX=0.5;exitY=1;exitDx=0;exitDy=0;entryX=0;entryY=0;entryDx=0;entryDy=0;" parent="1" source="4CQaGWNJay9pVI9Aiefd-20" edge="1" target="XHC_1rtgCeSJJfJ9n7Ta-1">
          <mxGeometry relative="1" as="geometry">
            <mxPoint x="121.30769230769226" y="760" as="targetPoint" />
          </mxGeometry>
        </mxCell>
        <mxCell id="4CQaGWNJay9pVI9Aiefd-23" style="edgeStyle=orthogonalEdgeStyle;rounded=0;orthogonalLoop=1;jettySize=auto;html=1;exitX=0;exitY=0.5;exitDx=0;exitDy=0;" parent="1" source="4CQaGWNJay9pVI9Aiefd-20" edge="1">
          <mxGeometry relative="1" as="geometry">
            <mxPoint x="49.999999999999886" y="580" as="targetPoint" />
          </mxGeometry>
        </mxCell>
        <mxCell id="4CQaGWNJay9pVI9Aiefd-20" value="Data&lt;div&gt;guru dan&amp;nbsp;&lt;/div&gt;&lt;div&gt;murid&amp;nbsp;&lt;/div&gt;&lt;div&gt;berhasil&amp;nbsp;&lt;span style=&quot;background-color: transparent; color: light-dark(rgb(0, 0, 0), rgb(255, 255, 255));&quot;&gt;di&amp;nbsp;&lt;/span&gt;&lt;/div&gt;&lt;div&gt;&lt;span style=&quot;background-color: transparent; color: light-dark(rgb(0, 0, 0), rgb(255, 255, 255));&quot;&gt;simpan&lt;/span&gt;&lt;/div&gt;" style="rhombus;whiteSpace=wrap;html=1;fillColor=#fff2cc;strokeColor=#d6b656;" parent="1" vertex="1">
          <mxGeometry x="71.5" y="610" width="99" height="90" as="geometry" />
        </mxCell>
        <mxCell id="4CQaGWNJay9pVI9Aiefd-24" value="Ya" style="text;html=1;align=center;verticalAlign=middle;whiteSpace=wrap;rounded=0;" parent="1" vertex="1">
          <mxGeometry x="117" y="720" width="60" height="30" as="geometry" />
        </mxCell>
        <mxCell id="4CQaGWNJay9pVI9Aiefd-25" value="tidak" style="text;html=1;align=center;verticalAlign=middle;whiteSpace=wrap;rounded=0;" parent="1" vertex="1">
          <mxGeometry x="40" y="610" width="60" height="30" as="geometry" />
        </mxCell>
        <mxCell id="XHC_1rtgCeSJJfJ9n7Ta-5" style="edgeStyle=orthogonalEdgeStyle;rounded=0;orthogonalLoop=1;jettySize=auto;html=1;exitX=0.5;exitY=1;exitDx=0;exitDy=0;" edge="1" parent="1" source="XHC_1rtgCeSJJfJ9n7Ta-1">
          <mxGeometry relative="1" as="geometry">
            <mxPoint x="380.17647058823536" y="940" as="targetPoint" />
          </mxGeometry>
        </mxCell>
        <mxCell id="XHC_1rtgCeSJJfJ9n7Ta-1" value="DATA BERHASIL DI SIMPAN" style="rounded=1;whiteSpace=wrap;html=1;fillColor=#dae8fc;strokeColor=#6c8ebf;" vertex="1" parent="1">
          <mxGeometry x="220.75" y="790" width="320" height="70" as="geometry" />
        </mxCell>
        <mxCell id="XHC_1rtgCeSJJfJ9n7Ta-10" style="edgeStyle=orthogonalEdgeStyle;rounded=0;orthogonalLoop=1;jettySize=auto;html=1;exitX=0;exitY=0.5;exitDx=0;exitDy=0;entryX=0;entryY=1;entryDx=0;entryDy=0;" edge="1" parent="1" source="XHC_1rtgCeSJJfJ9n7Ta-7" target="lF7uxzH7znnain-QYsXM-3">
          <mxGeometry relative="1" as="geometry" />
        </mxCell>
        <mxCell id="XHC_1rtgCeSJJfJ9n7Ta-7" value="Finish&amp;nbsp;&lt;div&gt;logout&lt;/div&gt;" style="ellipse;whiteSpace=wrap;html=1;fillColor=#f8cecc;strokeColor=#b85450;" vertex="1" parent="1">
          <mxGeometry x="298.25" y="940" width="165" height="70" as="geometry" />
        </mxCell>
      </root>
    </mxGraphModel>
  </diagram>
</mxfile>
